<svg width="30" height="28" viewBox="0 0 30 28" fill="none" xmlns="http://www.w3.org/2000/svg">
<path d="M20.3333 16.667V17.3337M14 19.667H16L15 20.667L14 19.667Z" stroke="#E54C00" stroke-width="3.06667" stroke-linecap="round" stroke-linejoin="round"/>
<path d="M4.89301 12.9961C4.52053 14.4372 4.33236 15.9197 4.33301 17.4081C4.33301 22.9708 9.10901 26.0001 14.9997 26.0001C20.8903 26.0001 25.6663 22.9708 25.6663 17.4081C25.6597 15.9135 25.4383 14.4277 25.009 12.9961M9.66634 16.6668V17.3334" stroke="#E54C00" stroke-width="3.06667" stroke-linecap="round" stroke-linejoin="round"/>
<path d="M10.3333 9.33362C9.82131 10.7336 8.88931 12.0376 7.20798 12.667C4.63331 13.6296 2.43998 12.271 2.33331 11.3336C2.18264 10.0083 3.90264 2.62695 7.66664 2.00028C10.2306 1.57228 12.5346 3.12695 12.5346 4.98028C14.221 4.55217 15.99 4.57148 17.6666 5.03628C17.6666 3.18295 20.1253 1.57228 22.6893 2.00028C26.4533 2.62695 28.1733 10.0083 28.0226 11.3336C27.916 12.271 25.7226 13.6296 23.148 12.667C21.4666 12.0376 20.6746 10.7336 20.1626 9.33362" stroke="#E54C00" stroke-width="3.06667" stroke-linecap="round" stroke-linejoin="round"/>
</svg>
